<svg id="Layer_1" enable-background="new 0 0 32 32" height="512" viewBox="0 0 32 32" width="512" xmlns="http://www.w3.org/2000/svg"><g><path d="m29.9 2.1c-.8-.7-1.8-1.1-2.9-1.1h-8.6c-1.2 0-2.4.5-3.3 1.4l-12.7 12.7c-.8.9-1.3 2-1.4 3.1-.1 1.2.3 2.3 1.1 3.1l8.6 8.6c.7.7 1.7 1.1 2.8 1.1 1.2 0 2.4-.5 3.3-1.4l12.7-12.7c.9-.9 1.4-2.1 1.4-3.3l.1-8.6c0-1.1-.4-2.1-1.1-2.9zm-.9 11.5c0 .7-.3 1.4-.8 1.9l-12.7 12.7c-.5.5-1.2.8-1.9.8-.6 0-1.1-.2-1.4-.6l-8.6-8.6c-.4-.3-.6-.9-.6-1.5 0-.7.3-1.3.8-1.8l12.7-12.6c.5-.6 1.2-.9 1.9-.9h8.6c.6 0 1.1.2 1.4.6.4.3.6.8.6 1.4z"/><path d="m21.1 6.2c-1.3 1.3-1.3 3.4 0 4.7.6.6 1.5 1 2.3 1s1.7-.3 2.3-1c1.3-1.3 1.3-3.4 0-4.7-1.1-1.2-3.3-1.2-4.6 0zm3.3 3.3c-.5.5-1.4.5-1.8 0-.6-.5-.6-1.4-.1-1.9.2-.2.6-.4.9-.4s.7.1.9.4c.6.5.6 1.4.1 1.9z"/></g></svg>